<mxfile host="Electron" modified="2024-05-12T13:47:46.508Z" agent="Mozilla/5.0 (X11; Linux x86_64) AppleWebKit/537.36 (KHTML, like Gecko) draw.io/22.1.16 Chrome/120.0.6099.109 Electron/28.1.0 Safari/537.36" etag="NbU8G3OmMyVaQPd1iErH" version="22.1.16" type="device">
  <diagram id="C5RBs43oDa-KdzZeNtuy" name="Page-1">
    <mxGraphModel dx="2790" dy="1405" grid="1" gridSize="10" guides="1" tooltips="1" connect="1" arrows="1" fold="1" page="1" pageScale="1" pageWidth="1169" pageHeight="1654" math="0" shadow="0">
      <root>
        <mxCell id="WIyWlLk6GJQsqaUBKTNV-0" />
        <mxCell id="WIyWlLk6GJQsqaUBKTNV-1" parent="WIyWlLk6GJQsqaUBKTNV-0" />
        <mxCell id="LebVT-fsiNY8ZmQKpkG3-3" style="edgeStyle=orthogonalEdgeStyle;rounded=0;orthogonalLoop=1;jettySize=auto;html=1;exitX=0.5;exitY=1;exitDx=0;exitDy=0;entryX=0.5;entryY=0;entryDx=0;entryDy=0;" parent="WIyWlLk6GJQsqaUBKTNV-1" source="WIyWlLk6GJQsqaUBKTNV-3" target="LebVT-fsiNY8ZmQKpkG3-1" edge="1">
          <mxGeometry relative="1" as="geometry" />
        </mxCell>
        <mxCell id="WIyWlLk6GJQsqaUBKTNV-3" value="Set ripartitions and seeds list&lt;br&gt;trials = 100" style="rounded=1;whiteSpace=wrap;html=1;fontSize=12;glass=0;strokeWidth=1;shadow=0;" parent="WIyWlLk6GJQsqaUBKTNV-1" vertex="1">
          <mxGeometry x="192.91" y="340" width="170" height="50" as="geometry" />
        </mxCell>
        <mxCell id="LebVT-fsiNY8ZmQKpkG3-7" style="edgeStyle=orthogonalEdgeStyle;rounded=0;orthogonalLoop=1;jettySize=auto;html=1;exitX=0.5;exitY=1;exitDx=0;exitDy=0;entryX=0.5;entryY=0;entryDx=0;entryDy=0;" parent="WIyWlLk6GJQsqaUBKTNV-1" source="WIyWlLk6GJQsqaUBKTNV-6" target="LebVT-fsiNY8ZmQKpkG3-5" edge="1">
          <mxGeometry relative="1" as="geometry" />
        </mxCell>
        <mxCell id="C4AhbRnhhLf-bf0rgU8E-24" style="edgeStyle=orthogonalEdgeStyle;rounded=0;orthogonalLoop=1;jettySize=auto;html=1;exitX=0;exitY=0.5;exitDx=0;exitDy=0;" edge="1" parent="WIyWlLk6GJQsqaUBKTNV-1" source="WIyWlLk6GJQsqaUBKTNV-6">
          <mxGeometry relative="1" as="geometry">
            <mxPoint x="75" y="390" as="targetPoint" />
          </mxGeometry>
        </mxCell>
        <mxCell id="WIyWlLk6GJQsqaUBKTNV-6" value="&lt;br&gt;next ripartition &lt;br&gt;in ripartitions&amp;nbsp;&lt;br&gt;?" style="rhombus;whiteSpace=wrap;html=1;shadow=0;fontFamily=Helvetica;fontSize=12;align=center;strokeWidth=1;spacing=6;spacingTop=-4;" parent="WIyWlLk6GJQsqaUBKTNV-1" vertex="1">
          <mxGeometry x="222.90999999999997" y="500" width="110" height="100" as="geometry" />
        </mxCell>
        <mxCell id="LebVT-fsiNY8ZmQKpkG3-4" style="edgeStyle=orthogonalEdgeStyle;rounded=0;orthogonalLoop=1;jettySize=auto;html=1;exitX=0.5;exitY=1;exitDx=0;exitDy=0;entryX=0.5;entryY=0;entryDx=0;entryDy=0;" parent="WIyWlLk6GJQsqaUBKTNV-1" source="LebVT-fsiNY8ZmQKpkG3-1" target="WIyWlLk6GJQsqaUBKTNV-6" edge="1">
          <mxGeometry relative="1" as="geometry" />
        </mxCell>
        <mxCell id="LebVT-fsiNY8ZmQKpkG3-1" value="next ripartition = first ripartition" style="rounded=1;whiteSpace=wrap;html=1;absoluteArcSize=1;arcSize=14;strokeWidth=2;" parent="WIyWlLk6GJQsqaUBKTNV-1" vertex="1">
          <mxGeometry x="187.91" y="440" width="180" height="30" as="geometry" />
        </mxCell>
        <mxCell id="LebVT-fsiNY8ZmQKpkG3-9" style="edgeStyle=orthogonalEdgeStyle;rounded=0;orthogonalLoop=1;jettySize=auto;html=1;exitX=0.5;exitY=1;exitDx=0;exitDy=0;" parent="WIyWlLk6GJQsqaUBKTNV-1" source="LebVT-fsiNY8ZmQKpkG3-5" edge="1">
          <mxGeometry relative="1" as="geometry">
            <mxPoint x="277.90999999999997" y="760" as="targetPoint" />
          </mxGeometry>
        </mxCell>
        <mxCell id="LebVT-fsiNY8ZmQKpkG3-5" value="Set i = 0" style="rounded=1;whiteSpace=wrap;html=1;absoluteArcSize=1;arcSize=14;strokeWidth=2;" parent="WIyWlLk6GJQsqaUBKTNV-1" vertex="1">
          <mxGeometry x="222.90999999999997" y="640" width="110" height="30" as="geometry" />
        </mxCell>
        <mxCell id="LebVT-fsiNY8ZmQKpkG3-8" value="&lt;span style=&quot;color: rgb(0, 0, 0); font-family: Helvetica; font-size: 11px; font-style: normal; font-variant-ligatures: normal; font-variant-caps: normal; font-weight: 400; letter-spacing: normal; orphans: 2; text-align: center; text-indent: 0px; text-transform: none; widows: 2; word-spacing: 0px; -webkit-text-stroke-width: 0px; background-color: rgb(251, 251, 251); text-decoration-thickness: initial; text-decoration-style: initial; text-decoration-color: initial; float: none; display: inline !important;&quot;&gt;Yes&lt;/span&gt;" style="text;whiteSpace=wrap;html=1;" parent="WIyWlLk6GJQsqaUBKTNV-1" vertex="1">
          <mxGeometry x="282.90999999999997" y="600" width="50" height="40" as="geometry" />
        </mxCell>
        <mxCell id="LebVT-fsiNY8ZmQKpkG3-11" style="edgeStyle=orthogonalEdgeStyle;rounded=0;orthogonalLoop=1;jettySize=auto;html=1;exitX=0.5;exitY=1;exitDx=0;exitDy=0;" parent="WIyWlLk6GJQsqaUBKTNV-1" source="LebVT-fsiNY8ZmQKpkG3-10" edge="1">
          <mxGeometry relative="1" as="geometry">
            <mxPoint x="277.90999999999997" y="810" as="targetPoint" />
          </mxGeometry>
        </mxCell>
        <mxCell id="C4AhbRnhhLf-bf0rgU8E-22" style="edgeStyle=orthogonalEdgeStyle;rounded=0;orthogonalLoop=1;jettySize=auto;html=1;exitX=1;exitY=0.5;exitDx=0;exitDy=0;entryX=0.5;entryY=1;entryDx=0;entryDy=0;" edge="1" parent="WIyWlLk6GJQsqaUBKTNV-1" source="LebVT-fsiNY8ZmQKpkG3-10" target="LebVT-fsiNY8ZmQKpkG3-85">
          <mxGeometry relative="1" as="geometry" />
        </mxCell>
        <mxCell id="LebVT-fsiNY8ZmQKpkG3-10" value="i &amp;lt; trials ?" style="rhombus;whiteSpace=wrap;html=1;shadow=0;fontFamily=Helvetica;fontSize=12;align=center;strokeWidth=1;spacing=6;spacingTop=-4;" parent="WIyWlLk6GJQsqaUBKTNV-1" vertex="1">
          <mxGeometry x="237.91000000000003" y="700" width="81.09" height="70" as="geometry" />
        </mxCell>
        <mxCell id="LebVT-fsiNY8ZmQKpkG3-12" value="&lt;span style=&quot;color: rgb(0, 0, 0); font-family: Helvetica; font-size: 11px; font-style: normal; font-variant-ligatures: normal; font-variant-caps: normal; font-weight: 400; letter-spacing: normal; orphans: 2; text-align: center; text-indent: 0px; text-transform: none; widows: 2; word-spacing: 0px; -webkit-text-stroke-width: 0px; background-color: rgb(251, 251, 251); text-decoration-thickness: initial; text-decoration-style: initial; text-decoration-color: initial; float: none; display: inline !important;&quot;&gt;Yes&lt;/span&gt;" style="text;whiteSpace=wrap;html=1;" parent="WIyWlLk6GJQsqaUBKTNV-1" vertex="1">
          <mxGeometry x="282.90999999999997" y="770" width="50" height="40" as="geometry" />
        </mxCell>
        <mxCell id="LebVT-fsiNY8ZmQKpkG3-19" style="edgeStyle=orthogonalEdgeStyle;rounded=0;orthogonalLoop=1;jettySize=auto;html=1;exitX=0.5;exitY=1;exitDx=0;exitDy=0;entryX=0.5;entryY=0;entryDx=0;entryDy=0;" parent="WIyWlLk6GJQsqaUBKTNV-1" source="LebVT-fsiNY8ZmQKpkG3-13" target="LebVT-fsiNY8ZmQKpkG3-14" edge="1">
          <mxGeometry relative="1" as="geometry" />
        </mxCell>
        <mxCell id="LebVT-fsiNY8ZmQKpkG3-13" value="Split dataset accordingly to current ripartition and seeds[i] for the first parameter" style="rounded=1;whiteSpace=wrap;html=1;absoluteArcSize=1;arcSize=14;strokeWidth=2;" parent="WIyWlLk6GJQsqaUBKTNV-1" vertex="1">
          <mxGeometry x="195.40999999999997" y="810" width="167.5" height="70" as="geometry" />
        </mxCell>
        <mxCell id="LebVT-fsiNY8ZmQKpkG3-17" value="" style="edgeStyle=orthogonalEdgeStyle;rounded=0;orthogonalLoop=1;jettySize=auto;html=1;" parent="WIyWlLk6GJQsqaUBKTNV-1" source="LebVT-fsiNY8ZmQKpkG3-14" target="LebVT-fsiNY8ZmQKpkG3-16" edge="1">
          <mxGeometry relative="1" as="geometry" />
        </mxCell>
        <mxCell id="LebVT-fsiNY8ZmQKpkG3-14" value="Train PLS with current n_components" style="rounded=1;whiteSpace=wrap;html=1;absoluteArcSize=1;arcSize=14;strokeWidth=2;" parent="WIyWlLk6GJQsqaUBKTNV-1" vertex="1">
          <mxGeometry x="222.90999999999997" y="905" width="110" height="45" as="geometry" />
        </mxCell>
        <mxCell id="LebVT-fsiNY8ZmQKpkG3-16" value="Store MSE1 of the trained model" style="rounded=1;whiteSpace=wrap;html=1;absoluteArcSize=1;arcSize=14;strokeWidth=2;" parent="WIyWlLk6GJQsqaUBKTNV-1" vertex="1">
          <mxGeometry x="217.90999999999997" y="980" width="120" height="60" as="geometry" />
        </mxCell>
        <mxCell id="LebVT-fsiNY8ZmQKpkG3-22" style="edgeStyle=orthogonalEdgeStyle;rounded=0;orthogonalLoop=1;jettySize=auto;html=1;exitX=1;exitY=0.5;exitDx=0;exitDy=0;exitPerimeter=0;entryX=0;entryY=0.5;entryDx=0;entryDy=0;" parent="WIyWlLk6GJQsqaUBKTNV-1" source="LebVT-fsiNY8ZmQKpkG3-20" edge="1" target="LebVT-fsiNY8ZmQKpkG3-24">
          <mxGeometry relative="1" as="geometry">
            <mxPoint x="385" y="1135" as="targetPoint" />
          </mxGeometry>
        </mxCell>
        <mxCell id="LebVT-fsiNY8ZmQKpkG3-26" style="edgeStyle=orthogonalEdgeStyle;rounded=0;orthogonalLoop=1;jettySize=auto;html=1;exitX=0.5;exitY=1;exitDx=0;exitDy=0;exitPerimeter=0;" parent="WIyWlLk6GJQsqaUBKTNV-1" source="LebVT-fsiNY8ZmQKpkG3-20" target="LebVT-fsiNY8ZmQKpkG3-28" edge="1">
          <mxGeometry relative="1" as="geometry">
            <mxPoint x="278.15137931034485" y="1270" as="targetPoint" />
          </mxGeometry>
        </mxCell>
        <mxCell id="LebVT-fsiNY8ZmQKpkG3-20" value="Is the last model,&lt;br&gt;&amp;nbsp;the one with &lt;br&gt;minimun MSE&lt;br&gt;&amp;nbsp;among all trials ?" style="strokeWidth=2;html=1;shape=mxgraph.flowchart.decision;whiteSpace=wrap;" parent="WIyWlLk6GJQsqaUBKTNV-1" vertex="1">
          <mxGeometry x="202.90999999999997" y="1060" width="150" height="150" as="geometry" />
        </mxCell>
        <mxCell id="LebVT-fsiNY8ZmQKpkG3-21" style="edgeStyle=orthogonalEdgeStyle;rounded=0;orthogonalLoop=1;jettySize=auto;html=1;exitX=0.5;exitY=1;exitDx=0;exitDy=0;entryX=0.5;entryY=0;entryDx=0;entryDy=0;entryPerimeter=0;" parent="WIyWlLk6GJQsqaUBKTNV-1" source="LebVT-fsiNY8ZmQKpkG3-16" target="LebVT-fsiNY8ZmQKpkG3-20" edge="1">
          <mxGeometry relative="1" as="geometry" />
        </mxCell>
        <mxCell id="LebVT-fsiNY8ZmQKpkG3-23" value="&lt;span style=&quot;color: rgb(0, 0, 0); font-family: Helvetica; font-size: 11px; font-style: normal; font-variant-ligatures: normal; font-variant-caps: normal; font-weight: 400; letter-spacing: normal; orphans: 2; text-align: center; text-indent: 0px; text-transform: none; widows: 2; word-spacing: 0px; -webkit-text-stroke-width: 0px; background-color: rgb(251, 251, 251); text-decoration-thickness: initial; text-decoration-style: initial; text-decoration-color: initial; float: none; display: inline !important;&quot;&gt;Yes&lt;/span&gt;" style="text;whiteSpace=wrap;html=1;" parent="WIyWlLk6GJQsqaUBKTNV-1" vertex="1">
          <mxGeometry x="352.90999999999997" y="1105" width="50" height="40" as="geometry" />
        </mxCell>
        <mxCell id="LebVT-fsiNY8ZmQKpkG3-27" style="edgeStyle=orthogonalEdgeStyle;rounded=0;orthogonalLoop=1;jettySize=auto;html=1;exitX=0.5;exitY=1;exitDx=0;exitDy=0;entryX=0.5;entryY=0;entryDx=0;entryDy=0;" parent="WIyWlLk6GJQsqaUBKTNV-1" source="LebVT-fsiNY8ZmQKpkG3-24" target="LebVT-fsiNY8ZmQKpkG3-28" edge="1">
          <mxGeometry relative="1" as="geometry">
            <mxPoint x="412.90999999999997" y="1240" as="targetPoint" />
            <Array as="points">
              <mxPoint x="442.90999999999997" y="1165" />
              <mxPoint x="442.90999999999997" y="1220" />
              <mxPoint x="282.90999999999997" y="1220" />
              <mxPoint x="282.90999999999997" y="1240" />
              <mxPoint x="277.90999999999997" y="1240" />
            </Array>
          </mxGeometry>
        </mxCell>
        <mxCell id="LebVT-fsiNY8ZmQKpkG3-24" value="Save testset and predictions for first parameter" style="rounded=1;whiteSpace=wrap;html=1;absoluteArcSize=1;arcSize=14;strokeWidth=2;" parent="WIyWlLk6GJQsqaUBKTNV-1" vertex="1">
          <mxGeometry x="386.90999999999997" y="1105" width="120" height="60" as="geometry" />
        </mxCell>
        <mxCell id="C4AhbRnhhLf-bf0rgU8E-14" style="edgeStyle=orthogonalEdgeStyle;rounded=0;orthogonalLoop=1;jettySize=auto;html=1;exitX=0.5;exitY=1;exitDx=0;exitDy=0;entryX=0;entryY=0.5;entryDx=0;entryDy=0;" edge="1" parent="WIyWlLk6GJQsqaUBKTNV-1" source="LebVT-fsiNY8ZmQKpkG3-28" target="LebVT-fsiNY8ZmQKpkG3-10">
          <mxGeometry relative="1" as="geometry">
            <Array as="points">
              <mxPoint x="278" y="1310" />
              <mxPoint x="135" y="1310" />
              <mxPoint x="135" y="735" />
            </Array>
          </mxGeometry>
        </mxCell>
        <mxCell id="LebVT-fsiNY8ZmQKpkG3-28" value="i++" style="rounded=1;whiteSpace=wrap;html=1;absoluteArcSize=1;arcSize=14;strokeWidth=2;" parent="WIyWlLk6GJQsqaUBKTNV-1" vertex="1">
          <mxGeometry x="222.90999999999997" y="1260" width="110" height="30" as="geometry" />
        </mxCell>
        <mxCell id="LebVT-fsiNY8ZmQKpkG3-29" value="&lt;span style=&quot;color: rgb(0, 0, 0); font-family: Helvetica; font-size: 11px; font-style: normal; font-variant-ligatures: normal; font-variant-caps: normal; font-weight: 400; letter-spacing: normal; orphans: 2; text-align: center; text-indent: 0px; text-transform: none; widows: 2; word-spacing: 0px; -webkit-text-stroke-width: 0px; background-color: rgb(251, 251, 251); text-decoration-thickness: initial; text-decoration-style: initial; text-decoration-color: initial; float: none; display: inline !important;&quot;&gt;No&lt;/span&gt;" style="text;whiteSpace=wrap;html=1;" parent="WIyWlLk6GJQsqaUBKTNV-1" vertex="1">
          <mxGeometry x="252.90999999999997" y="1210" width="50" height="40" as="geometry" />
        </mxCell>
        <mxCell id="LebVT-fsiNY8ZmQKpkG3-34" value="&lt;span style=&quot;color: rgb(0, 0, 0); font-family: Helvetica; font-size: 11px; font-style: normal; font-variant-ligatures: normal; font-variant-caps: normal; font-weight: 400; letter-spacing: normal; orphans: 2; text-align: center; text-indent: 0px; text-transform: none; widows: 2; word-spacing: 0px; -webkit-text-stroke-width: 0px; background-color: rgb(251, 251, 251); text-decoration-thickness: initial; text-decoration-style: initial; text-decoration-color: initial; float: none; display: inline !important;&quot;&gt;No&lt;/span&gt;" style="text;whiteSpace=wrap;html=1;" parent="WIyWlLk6GJQsqaUBKTNV-1" vertex="1">
          <mxGeometry x="325" y="710" width="50" height="40" as="geometry" />
        </mxCell>
        <mxCell id="LebVT-fsiNY8ZmQKpkG3-92" value="&lt;font style=&quot;font-size: 36px;&quot;&gt;FLOWCHART FOR PLS&lt;/font&gt;" style="text;html=1;strokeColor=none;fillColor=none;align=center;verticalAlign=middle;whiteSpace=wrap;rounded=0;" parent="WIyWlLk6GJQsqaUBKTNV-1" vertex="1">
          <mxGeometry x="162" y="20" width="845" height="40" as="geometry" />
        </mxCell>
        <mxCell id="C4AhbRnhhLf-bf0rgU8E-16" value="" style="edgeStyle=orthogonalEdgeStyle;rounded=0;orthogonalLoop=1;jettySize=auto;html=1;" edge="1" parent="WIyWlLk6GJQsqaUBKTNV-1" source="C4AhbRnhhLf-bf0rgU8E-1">
          <mxGeometry relative="1" as="geometry">
            <mxPoint x="278" y="190" as="targetPoint" />
          </mxGeometry>
        </mxCell>
        <mxCell id="C4AhbRnhhLf-bf0rgU8E-1" value="n_components = 2" style="strokeWidth=2;html=1;shape=mxgraph.flowchart.start_1;whiteSpace=wrap;" vertex="1" parent="WIyWlLk6GJQsqaUBKTNV-1">
          <mxGeometry x="222.91000000000003" y="80" width="111.09" height="60" as="geometry" />
        </mxCell>
        <mxCell id="C4AhbRnhhLf-bf0rgU8E-19" value="" style="edgeStyle=orthogonalEdgeStyle;rounded=0;orthogonalLoop=1;jettySize=auto;html=1;" edge="1" parent="WIyWlLk6GJQsqaUBKTNV-1" source="C4AhbRnhhLf-bf0rgU8E-15" target="WIyWlLk6GJQsqaUBKTNV-3">
          <mxGeometry relative="1" as="geometry" />
        </mxCell>
        <mxCell id="C4AhbRnhhLf-bf0rgU8E-66" style="edgeStyle=orthogonalEdgeStyle;rounded=0;orthogonalLoop=1;jettySize=auto;html=1;exitX=1;exitY=0.5;exitDx=0;exitDy=0;exitPerimeter=0;entryX=0;entryY=0.5;entryDx=0;entryDy=0;" edge="1" parent="WIyWlLk6GJQsqaUBKTNV-1" source="C4AhbRnhhLf-bf0rgU8E-15" target="C4AhbRnhhLf-bf0rgU8E-105">
          <mxGeometry relative="1" as="geometry">
            <mxPoint x="535" y="110" as="targetPoint" />
          </mxGeometry>
        </mxCell>
        <mxCell id="C4AhbRnhhLf-bf0rgU8E-15" value="&lt;br&gt;n_components&amp;nbsp;&lt;br&gt;&amp;lt;=&lt;br&gt;30&amp;nbsp;&lt;br&gt;?" style="strokeWidth=2;html=1;shape=mxgraph.flowchart.decision;whiteSpace=wrap;" vertex="1" parent="WIyWlLk6GJQsqaUBKTNV-1">
          <mxGeometry x="218.45000000000005" y="190" width="120" height="110" as="geometry" />
        </mxCell>
        <mxCell id="C4AhbRnhhLf-bf0rgU8E-20" value="&lt;span style=&quot;color: rgb(0, 0, 0); font-family: Helvetica; font-size: 11px; font-style: normal; font-variant-ligatures: normal; font-variant-caps: normal; font-weight: 400; letter-spacing: normal; orphans: 2; text-align: center; text-indent: 0px; text-transform: none; widows: 2; word-spacing: 0px; -webkit-text-stroke-width: 0px; background-color: rgb(251, 251, 251); text-decoration-thickness: initial; text-decoration-style: initial; text-decoration-color: initial; float: none; display: inline !important;&quot;&gt;Yes&lt;/span&gt;" style="text;whiteSpace=wrap;html=1;" vertex="1" parent="WIyWlLk6GJQsqaUBKTNV-1">
          <mxGeometry x="282.91" y="300" width="50" height="40" as="geometry" />
        </mxCell>
        <mxCell id="C4AhbRnhhLf-bf0rgU8E-23" style="edgeStyle=orthogonalEdgeStyle;rounded=0;orthogonalLoop=1;jettySize=auto;html=1;exitX=0.5;exitY=0;exitDx=0;exitDy=0;entryX=1;entryY=0.5;entryDx=0;entryDy=0;" edge="1" parent="WIyWlLk6GJQsqaUBKTNV-1" source="LebVT-fsiNY8ZmQKpkG3-85" target="WIyWlLk6GJQsqaUBKTNV-6">
          <mxGeometry relative="1" as="geometry" />
        </mxCell>
        <mxCell id="LebVT-fsiNY8ZmQKpkG3-85" value="Get next ripartition" style="rounded=1;whiteSpace=wrap;html=1;absoluteArcSize=1;arcSize=14;strokeWidth=2;" parent="WIyWlLk6GJQsqaUBKTNV-1" vertex="1">
          <mxGeometry x="386.91" y="570" width="76.09" height="50" as="geometry" />
        </mxCell>
        <mxCell id="C4AhbRnhhLf-bf0rgU8E-25" value="n_components ++" style="rounded=1;whiteSpace=wrap;html=1;absoluteArcSize=1;arcSize=14;strokeWidth=2;" vertex="1" parent="WIyWlLk6GJQsqaUBKTNV-1">
          <mxGeometry x="25" y="340" width="100" height="50" as="geometry" />
        </mxCell>
        <mxCell id="C4AhbRnhhLf-bf0rgU8E-26" style="edgeStyle=orthogonalEdgeStyle;rounded=0;orthogonalLoop=1;jettySize=auto;html=1;exitX=0.5;exitY=0;exitDx=0;exitDy=0;entryX=0;entryY=0.5;entryDx=0;entryDy=0;entryPerimeter=0;" edge="1" parent="WIyWlLk6GJQsqaUBKTNV-1" source="C4AhbRnhhLf-bf0rgU8E-25" target="C4AhbRnhhLf-bf0rgU8E-15">
          <mxGeometry relative="1" as="geometry" />
        </mxCell>
        <mxCell id="C4AhbRnhhLf-bf0rgU8E-28" style="edgeStyle=orthogonalEdgeStyle;rounded=0;orthogonalLoop=1;jettySize=auto;html=1;exitX=0.5;exitY=1;exitDx=0;exitDy=0;entryX=0.5;entryY=0;entryDx=0;entryDy=0;" edge="1" parent="WIyWlLk6GJQsqaUBKTNV-1" source="C4AhbRnhhLf-bf0rgU8E-29" target="C4AhbRnhhLf-bf0rgU8E-34">
          <mxGeometry relative="1" as="geometry" />
        </mxCell>
        <mxCell id="C4AhbRnhhLf-bf0rgU8E-29" value="Set ripartitions and seeds list&lt;br&gt;trials = 100" style="rounded=1;whiteSpace=wrap;html=1;fontSize=12;glass=0;strokeWidth=1;shadow=0;" vertex="1" parent="WIyWlLk6GJQsqaUBKTNV-1">
          <mxGeometry x="752.91" y="340" width="170" height="50" as="geometry" />
        </mxCell>
        <mxCell id="C4AhbRnhhLf-bf0rgU8E-30" style="edgeStyle=orthogonalEdgeStyle;rounded=0;orthogonalLoop=1;jettySize=auto;html=1;exitX=0.5;exitY=1;exitDx=0;exitDy=0;entryX=0.5;entryY=0;entryDx=0;entryDy=0;" edge="1" parent="WIyWlLk6GJQsqaUBKTNV-1" source="C4AhbRnhhLf-bf0rgU8E-32" target="C4AhbRnhhLf-bf0rgU8E-36">
          <mxGeometry relative="1" as="geometry" />
        </mxCell>
        <mxCell id="C4AhbRnhhLf-bf0rgU8E-31" style="edgeStyle=orthogonalEdgeStyle;rounded=0;orthogonalLoop=1;jettySize=auto;html=1;exitX=0;exitY=0.5;exitDx=0;exitDy=0;" edge="1" parent="WIyWlLk6GJQsqaUBKTNV-1" source="C4AhbRnhhLf-bf0rgU8E-32">
          <mxGeometry relative="1" as="geometry">
            <mxPoint x="635" y="390" as="targetPoint" />
          </mxGeometry>
        </mxCell>
        <mxCell id="C4AhbRnhhLf-bf0rgU8E-32" value="&lt;br&gt;next ripartition &lt;br&gt;in ripartitions&amp;nbsp;&lt;br&gt;?" style="rhombus;whiteSpace=wrap;html=1;shadow=0;fontFamily=Helvetica;fontSize=12;align=center;strokeWidth=1;spacing=6;spacingTop=-4;" vertex="1" parent="WIyWlLk6GJQsqaUBKTNV-1">
          <mxGeometry x="782.91" y="500" width="110" height="100" as="geometry" />
        </mxCell>
        <mxCell id="C4AhbRnhhLf-bf0rgU8E-33" style="edgeStyle=orthogonalEdgeStyle;rounded=0;orthogonalLoop=1;jettySize=auto;html=1;exitX=0.5;exitY=1;exitDx=0;exitDy=0;entryX=0.5;entryY=0;entryDx=0;entryDy=0;" edge="1" parent="WIyWlLk6GJQsqaUBKTNV-1" source="C4AhbRnhhLf-bf0rgU8E-34" target="C4AhbRnhhLf-bf0rgU8E-32">
          <mxGeometry relative="1" as="geometry" />
        </mxCell>
        <mxCell id="C4AhbRnhhLf-bf0rgU8E-34" value="next ripartition = first ripartition" style="rounded=1;whiteSpace=wrap;html=1;absoluteArcSize=1;arcSize=14;strokeWidth=2;" vertex="1" parent="WIyWlLk6GJQsqaUBKTNV-1">
          <mxGeometry x="747.91" y="440" width="180" height="30" as="geometry" />
        </mxCell>
        <mxCell id="C4AhbRnhhLf-bf0rgU8E-35" style="edgeStyle=orthogonalEdgeStyle;rounded=0;orthogonalLoop=1;jettySize=auto;html=1;exitX=0.5;exitY=1;exitDx=0;exitDy=0;" edge="1" parent="WIyWlLk6GJQsqaUBKTNV-1" source="C4AhbRnhhLf-bf0rgU8E-36">
          <mxGeometry relative="1" as="geometry">
            <mxPoint x="837.91" y="760" as="targetPoint" />
          </mxGeometry>
        </mxCell>
        <mxCell id="C4AhbRnhhLf-bf0rgU8E-36" value="Set i = 0" style="rounded=1;whiteSpace=wrap;html=1;absoluteArcSize=1;arcSize=14;strokeWidth=2;" vertex="1" parent="WIyWlLk6GJQsqaUBKTNV-1">
          <mxGeometry x="782.91" y="640" width="110" height="30" as="geometry" />
        </mxCell>
        <mxCell id="C4AhbRnhhLf-bf0rgU8E-37" value="&lt;span style=&quot;color: rgb(0, 0, 0); font-family: Helvetica; font-size: 11px; font-style: normal; font-variant-ligatures: normal; font-variant-caps: normal; font-weight: 400; letter-spacing: normal; orphans: 2; text-align: center; text-indent: 0px; text-transform: none; widows: 2; word-spacing: 0px; -webkit-text-stroke-width: 0px; background-color: rgb(251, 251, 251); text-decoration-thickness: initial; text-decoration-style: initial; text-decoration-color: initial; float: none; display: inline !important;&quot;&gt;Yes&lt;/span&gt;" style="text;whiteSpace=wrap;html=1;" vertex="1" parent="WIyWlLk6GJQsqaUBKTNV-1">
          <mxGeometry x="842.91" y="600" width="50" height="40" as="geometry" />
        </mxCell>
        <mxCell id="C4AhbRnhhLf-bf0rgU8E-38" style="edgeStyle=orthogonalEdgeStyle;rounded=0;orthogonalLoop=1;jettySize=auto;html=1;exitX=0.5;exitY=1;exitDx=0;exitDy=0;" edge="1" parent="WIyWlLk6GJQsqaUBKTNV-1" source="C4AhbRnhhLf-bf0rgU8E-40">
          <mxGeometry relative="1" as="geometry">
            <mxPoint x="837.91" y="810" as="targetPoint" />
          </mxGeometry>
        </mxCell>
        <mxCell id="C4AhbRnhhLf-bf0rgU8E-39" style="edgeStyle=orthogonalEdgeStyle;rounded=0;orthogonalLoop=1;jettySize=auto;html=1;exitX=1;exitY=0.5;exitDx=0;exitDy=0;entryX=0.5;entryY=1;entryDx=0;entryDy=0;" edge="1" parent="WIyWlLk6GJQsqaUBKTNV-1" source="C4AhbRnhhLf-bf0rgU8E-40" target="C4AhbRnhhLf-bf0rgU8E-63">
          <mxGeometry relative="1" as="geometry" />
        </mxCell>
        <mxCell id="C4AhbRnhhLf-bf0rgU8E-40" value="i &amp;lt; trials ?" style="rhombus;whiteSpace=wrap;html=1;shadow=0;fontFamily=Helvetica;fontSize=12;align=center;strokeWidth=1;spacing=6;spacingTop=-4;" vertex="1" parent="WIyWlLk6GJQsqaUBKTNV-1">
          <mxGeometry x="797.9100000000001" y="700" width="81.09" height="70" as="geometry" />
        </mxCell>
        <mxCell id="C4AhbRnhhLf-bf0rgU8E-41" value="&lt;span style=&quot;color: rgb(0, 0, 0); font-family: Helvetica; font-size: 11px; font-style: normal; font-variant-ligatures: normal; font-variant-caps: normal; font-weight: 400; letter-spacing: normal; orphans: 2; text-align: center; text-indent: 0px; text-transform: none; widows: 2; word-spacing: 0px; -webkit-text-stroke-width: 0px; background-color: rgb(251, 251, 251); text-decoration-thickness: initial; text-decoration-style: initial; text-decoration-color: initial; float: none; display: inline !important;&quot;&gt;Yes&lt;/span&gt;" style="text;whiteSpace=wrap;html=1;" vertex="1" parent="WIyWlLk6GJQsqaUBKTNV-1">
          <mxGeometry x="842.91" y="770" width="50" height="40" as="geometry" />
        </mxCell>
        <mxCell id="C4AhbRnhhLf-bf0rgU8E-42" style="edgeStyle=orthogonalEdgeStyle;rounded=0;orthogonalLoop=1;jettySize=auto;html=1;exitX=0.5;exitY=1;exitDx=0;exitDy=0;entryX=0.5;entryY=0;entryDx=0;entryDy=0;" edge="1" parent="WIyWlLk6GJQsqaUBKTNV-1" source="C4AhbRnhhLf-bf0rgU8E-43" target="C4AhbRnhhLf-bf0rgU8E-45">
          <mxGeometry relative="1" as="geometry" />
        </mxCell>
        <mxCell id="C4AhbRnhhLf-bf0rgU8E-43" value="Split dataset accordingly to current ripartition and seeds[i] for the first parameter" style="rounded=1;whiteSpace=wrap;html=1;absoluteArcSize=1;arcSize=14;strokeWidth=2;" vertex="1" parent="WIyWlLk6GJQsqaUBKTNV-1">
          <mxGeometry x="755.41" y="810" width="167.5" height="70" as="geometry" />
        </mxCell>
        <mxCell id="C4AhbRnhhLf-bf0rgU8E-44" value="" style="edgeStyle=orthogonalEdgeStyle;rounded=0;orthogonalLoop=1;jettySize=auto;html=1;" edge="1" parent="WIyWlLk6GJQsqaUBKTNV-1" source="C4AhbRnhhLf-bf0rgU8E-45" target="C4AhbRnhhLf-bf0rgU8E-46">
          <mxGeometry relative="1" as="geometry" />
        </mxCell>
        <mxCell id="C4AhbRnhhLf-bf0rgU8E-45" value="Train PLS with current n_components" style="rounded=1;whiteSpace=wrap;html=1;absoluteArcSize=1;arcSize=14;strokeWidth=2;" vertex="1" parent="WIyWlLk6GJQsqaUBKTNV-1">
          <mxGeometry x="782.91" y="905" width="110" height="45" as="geometry" />
        </mxCell>
        <mxCell id="C4AhbRnhhLf-bf0rgU8E-46" value="Store MSE2 of the trained model" style="rounded=1;whiteSpace=wrap;html=1;absoluteArcSize=1;arcSize=14;strokeWidth=2;" vertex="1" parent="WIyWlLk6GJQsqaUBKTNV-1">
          <mxGeometry x="777.91" y="980" width="120" height="60" as="geometry" />
        </mxCell>
        <mxCell id="C4AhbRnhhLf-bf0rgU8E-47" style="edgeStyle=orthogonalEdgeStyle;rounded=0;orthogonalLoop=1;jettySize=auto;html=1;exitX=1;exitY=0.5;exitDx=0;exitDy=0;exitPerimeter=0;entryX=0;entryY=0.5;entryDx=0;entryDy=0;" edge="1" parent="WIyWlLk6GJQsqaUBKTNV-1" source="C4AhbRnhhLf-bf0rgU8E-49" target="C4AhbRnhhLf-bf0rgU8E-53">
          <mxGeometry relative="1" as="geometry">
            <mxPoint x="992.9099999999999" y="1134.8620689655172" as="targetPoint" />
          </mxGeometry>
        </mxCell>
        <mxCell id="C4AhbRnhhLf-bf0rgU8E-48" style="edgeStyle=orthogonalEdgeStyle;rounded=0;orthogonalLoop=1;jettySize=auto;html=1;exitX=0.5;exitY=1;exitDx=0;exitDy=0;exitPerimeter=0;" edge="1" parent="WIyWlLk6GJQsqaUBKTNV-1" source="C4AhbRnhhLf-bf0rgU8E-49" target="C4AhbRnhhLf-bf0rgU8E-55">
          <mxGeometry relative="1" as="geometry">
            <mxPoint x="838.1513793103449" y="1270" as="targetPoint" />
          </mxGeometry>
        </mxCell>
        <mxCell id="C4AhbRnhhLf-bf0rgU8E-49" value="Is the last model,&lt;br&gt;&amp;nbsp;the one with &lt;br&gt;minimun MSE&lt;br&gt;&amp;nbsp;among all trials ?" style="strokeWidth=2;html=1;shape=mxgraph.flowchart.decision;whiteSpace=wrap;" vertex="1" parent="WIyWlLk6GJQsqaUBKTNV-1">
          <mxGeometry x="762.91" y="1060" width="150" height="150" as="geometry" />
        </mxCell>
        <mxCell id="C4AhbRnhhLf-bf0rgU8E-50" style="edgeStyle=orthogonalEdgeStyle;rounded=0;orthogonalLoop=1;jettySize=auto;html=1;exitX=0.5;exitY=1;exitDx=0;exitDy=0;entryX=0.5;entryY=0;entryDx=0;entryDy=0;entryPerimeter=0;" edge="1" parent="WIyWlLk6GJQsqaUBKTNV-1" source="C4AhbRnhhLf-bf0rgU8E-46" target="C4AhbRnhhLf-bf0rgU8E-49">
          <mxGeometry relative="1" as="geometry" />
        </mxCell>
        <mxCell id="C4AhbRnhhLf-bf0rgU8E-51" value="&lt;span style=&quot;color: rgb(0, 0, 0); font-family: Helvetica; font-size: 11px; font-style: normal; font-variant-ligatures: normal; font-variant-caps: normal; font-weight: 400; letter-spacing: normal; orphans: 2; text-align: center; text-indent: 0px; text-transform: none; widows: 2; word-spacing: 0px; -webkit-text-stroke-width: 0px; background-color: rgb(251, 251, 251); text-decoration-thickness: initial; text-decoration-style: initial; text-decoration-color: initial; float: none; display: inline !important;&quot;&gt;Yes&lt;/span&gt;" style="text;whiteSpace=wrap;html=1;" vertex="1" parent="WIyWlLk6GJQsqaUBKTNV-1">
          <mxGeometry x="912.91" y="1105" width="50" height="40" as="geometry" />
        </mxCell>
        <mxCell id="C4AhbRnhhLf-bf0rgU8E-52" style="edgeStyle=orthogonalEdgeStyle;rounded=0;orthogonalLoop=1;jettySize=auto;html=1;exitX=0.5;exitY=1;exitDx=0;exitDy=0;entryX=0.5;entryY=0;entryDx=0;entryDy=0;" edge="1" parent="WIyWlLk6GJQsqaUBKTNV-1" source="C4AhbRnhhLf-bf0rgU8E-53" target="C4AhbRnhhLf-bf0rgU8E-55">
          <mxGeometry relative="1" as="geometry">
            <mxPoint x="972.9099999999999" y="1240" as="targetPoint" />
            <Array as="points">
              <mxPoint x="1002.9099999999999" y="1165" />
              <mxPoint x="1002.9099999999999" y="1220" />
              <mxPoint x="842.91" y="1220" />
              <mxPoint x="842.91" y="1240" />
              <mxPoint x="837.91" y="1240" />
            </Array>
          </mxGeometry>
        </mxCell>
        <mxCell id="C4AhbRnhhLf-bf0rgU8E-53" value="Save testset and predictions for second parameter" style="rounded=1;whiteSpace=wrap;html=1;absoluteArcSize=1;arcSize=14;strokeWidth=2;" vertex="1" parent="WIyWlLk6GJQsqaUBKTNV-1">
          <mxGeometry x="946.91" y="1105" width="120" height="60" as="geometry" />
        </mxCell>
        <mxCell id="C4AhbRnhhLf-bf0rgU8E-54" style="edgeStyle=orthogonalEdgeStyle;rounded=0;orthogonalLoop=1;jettySize=auto;html=1;exitX=0.5;exitY=1;exitDx=0;exitDy=0;entryX=0;entryY=0.5;entryDx=0;entryDy=0;" edge="1" parent="WIyWlLk6GJQsqaUBKTNV-1" source="C4AhbRnhhLf-bf0rgU8E-55" target="C4AhbRnhhLf-bf0rgU8E-40">
          <mxGeometry relative="1" as="geometry">
            <Array as="points">
              <mxPoint x="838" y="1310" />
              <mxPoint x="695" y="1310" />
              <mxPoint x="695" y="735" />
            </Array>
          </mxGeometry>
        </mxCell>
        <mxCell id="C4AhbRnhhLf-bf0rgU8E-55" value="i++" style="rounded=1;whiteSpace=wrap;html=1;absoluteArcSize=1;arcSize=14;strokeWidth=2;" vertex="1" parent="WIyWlLk6GJQsqaUBKTNV-1">
          <mxGeometry x="782.91" y="1260" width="110" height="30" as="geometry" />
        </mxCell>
        <mxCell id="C4AhbRnhhLf-bf0rgU8E-56" value="&lt;span style=&quot;color: rgb(0, 0, 0); font-family: Helvetica; font-size: 11px; font-style: normal; font-variant-ligatures: normal; font-variant-caps: normal; font-weight: 400; letter-spacing: normal; orphans: 2; text-align: center; text-indent: 0px; text-transform: none; widows: 2; word-spacing: 0px; -webkit-text-stroke-width: 0px; background-color: rgb(251, 251, 251); text-decoration-thickness: initial; text-decoration-style: initial; text-decoration-color: initial; float: none; display: inline !important;&quot;&gt;No&lt;/span&gt;" style="text;whiteSpace=wrap;html=1;" vertex="1" parent="WIyWlLk6GJQsqaUBKTNV-1">
          <mxGeometry x="812.91" y="1210" width="50" height="40" as="geometry" />
        </mxCell>
        <mxCell id="C4AhbRnhhLf-bf0rgU8E-57" value="&lt;span style=&quot;color: rgb(0, 0, 0); font-family: Helvetica; font-size: 11px; font-style: normal; font-variant-ligatures: normal; font-variant-caps: normal; font-weight: 400; letter-spacing: normal; orphans: 2; text-align: center; text-indent: 0px; text-transform: none; widows: 2; word-spacing: 0px; -webkit-text-stroke-width: 0px; background-color: rgb(251, 251, 251); text-decoration-thickness: initial; text-decoration-style: initial; text-decoration-color: initial; float: none; display: inline !important;&quot;&gt;No&lt;/span&gt;" style="text;whiteSpace=wrap;html=1;" vertex="1" parent="WIyWlLk6GJQsqaUBKTNV-1">
          <mxGeometry x="885" y="710" width="50" height="40" as="geometry" />
        </mxCell>
        <mxCell id="C4AhbRnhhLf-bf0rgU8E-58" value="" style="edgeStyle=orthogonalEdgeStyle;rounded=0;orthogonalLoop=1;jettySize=auto;html=1;" edge="1" parent="WIyWlLk6GJQsqaUBKTNV-1" source="C4AhbRnhhLf-bf0rgU8E-60" target="C4AhbRnhhLf-bf0rgU8E-29">
          <mxGeometry relative="1" as="geometry" />
        </mxCell>
        <mxCell id="C4AhbRnhhLf-bf0rgU8E-108" style="edgeStyle=orthogonalEdgeStyle;rounded=0;orthogonalLoop=1;jettySize=auto;html=1;exitX=1;exitY=0.5;exitDx=0;exitDy=0;exitPerimeter=0;entryX=0.5;entryY=0;entryDx=0;entryDy=0;" edge="1" parent="WIyWlLk6GJQsqaUBKTNV-1" source="C4AhbRnhhLf-bf0rgU8E-60" target="C4AhbRnhhLf-bf0rgU8E-111">
          <mxGeometry relative="1" as="geometry">
            <mxPoint x="1105" y="1320" as="targetPoint" />
          </mxGeometry>
        </mxCell>
        <mxCell id="C4AhbRnhhLf-bf0rgU8E-60" value="&lt;br&gt;n_components&amp;nbsp;&lt;br&gt;&amp;lt;=&lt;br&gt;30&amp;nbsp;&lt;br&gt;?" style="strokeWidth=2;html=1;shape=mxgraph.flowchart.decision;whiteSpace=wrap;" vertex="1" parent="WIyWlLk6GJQsqaUBKTNV-1">
          <mxGeometry x="778.45" y="190" width="120" height="110" as="geometry" />
        </mxCell>
        <mxCell id="C4AhbRnhhLf-bf0rgU8E-61" value="&lt;span style=&quot;color: rgb(0, 0, 0); font-family: Helvetica; font-size: 11px; font-style: normal; font-variant-ligatures: normal; font-variant-caps: normal; font-weight: 400; letter-spacing: normal; orphans: 2; text-align: center; text-indent: 0px; text-transform: none; widows: 2; word-spacing: 0px; -webkit-text-stroke-width: 0px; background-color: rgb(251, 251, 251); text-decoration-thickness: initial; text-decoration-style: initial; text-decoration-color: initial; float: none; display: inline !important;&quot;&gt;Yes&lt;/span&gt;" style="text;whiteSpace=wrap;html=1;" vertex="1" parent="WIyWlLk6GJQsqaUBKTNV-1">
          <mxGeometry x="842.9100000000001" y="300" width="50" height="40" as="geometry" />
        </mxCell>
        <mxCell id="C4AhbRnhhLf-bf0rgU8E-62" style="edgeStyle=orthogonalEdgeStyle;rounded=0;orthogonalLoop=1;jettySize=auto;html=1;exitX=0.5;exitY=0;exitDx=0;exitDy=0;entryX=1;entryY=0.5;entryDx=0;entryDy=0;" edge="1" parent="WIyWlLk6GJQsqaUBKTNV-1" source="C4AhbRnhhLf-bf0rgU8E-63" target="C4AhbRnhhLf-bf0rgU8E-32">
          <mxGeometry relative="1" as="geometry" />
        </mxCell>
        <mxCell id="C4AhbRnhhLf-bf0rgU8E-63" value="Get next ripartition" style="rounded=1;whiteSpace=wrap;html=1;absoluteArcSize=1;arcSize=14;strokeWidth=2;" vertex="1" parent="WIyWlLk6GJQsqaUBKTNV-1">
          <mxGeometry x="946.9100000000001" y="570" width="76.09" height="50" as="geometry" />
        </mxCell>
        <mxCell id="C4AhbRnhhLf-bf0rgU8E-64" value="n_components ++" style="rounded=1;whiteSpace=wrap;html=1;absoluteArcSize=1;arcSize=14;strokeWidth=2;" vertex="1" parent="WIyWlLk6GJQsqaUBKTNV-1">
          <mxGeometry x="585" y="340" width="100" height="50" as="geometry" />
        </mxCell>
        <mxCell id="C4AhbRnhhLf-bf0rgU8E-65" style="edgeStyle=orthogonalEdgeStyle;rounded=0;orthogonalLoop=1;jettySize=auto;html=1;exitX=0.5;exitY=0;exitDx=0;exitDy=0;entryX=0;entryY=0.5;entryDx=0;entryDy=0;entryPerimeter=0;" edge="1" parent="WIyWlLk6GJQsqaUBKTNV-1" source="C4AhbRnhhLf-bf0rgU8E-64" target="C4AhbRnhhLf-bf0rgU8E-60">
          <mxGeometry relative="1" as="geometry" />
        </mxCell>
        <mxCell id="C4AhbRnhhLf-bf0rgU8E-105" value="n_components = 2" style="rounded=1;whiteSpace=wrap;html=1;absoluteArcSize=1;arcSize=14;strokeWidth=2;" vertex="1" parent="WIyWlLk6GJQsqaUBKTNV-1">
          <mxGeometry x="585" y="90" width="110" height="50" as="geometry" />
        </mxCell>
        <mxCell id="C4AhbRnhhLf-bf0rgU8E-106" value="&lt;span style=&quot;color: rgb(0, 0, 0); font-family: Helvetica; font-size: 11px; font-style: normal; font-variant-ligatures: normal; font-variant-caps: normal; font-weight: 400; letter-spacing: normal; orphans: 2; text-align: center; text-indent: 0px; text-transform: none; widows: 2; word-spacing: 0px; -webkit-text-stroke-width: 0px; background-color: rgb(251, 251, 251); text-decoration-thickness: initial; text-decoration-style: initial; text-decoration-color: initial; float: none; display: inline !important;&quot;&gt;No&lt;/span&gt;" style="text;whiteSpace=wrap;html=1;" vertex="1" parent="WIyWlLk6GJQsqaUBKTNV-1">
          <mxGeometry x="338.45" y="220" width="50" height="40" as="geometry" />
        </mxCell>
        <mxCell id="C4AhbRnhhLf-bf0rgU8E-107" style="edgeStyle=orthogonalEdgeStyle;rounded=0;orthogonalLoop=1;jettySize=auto;html=1;exitX=1;exitY=0.5;exitDx=0;exitDy=0;entryX=0.5;entryY=0;entryDx=0;entryDy=0;entryPerimeter=0;" edge="1" parent="WIyWlLk6GJQsqaUBKTNV-1" source="C4AhbRnhhLf-bf0rgU8E-105" target="C4AhbRnhhLf-bf0rgU8E-60">
          <mxGeometry relative="1" as="geometry" />
        </mxCell>
        <mxCell id="C4AhbRnhhLf-bf0rgU8E-109" value="&lt;span style=&quot;color: rgb(0, 0, 0); font-family: Helvetica; font-size: 11px; font-style: normal; font-variant-ligatures: normal; font-variant-caps: normal; font-weight: 400; letter-spacing: normal; orphans: 2; text-align: center; text-indent: 0px; text-transform: none; widows: 2; word-spacing: 0px; -webkit-text-stroke-width: 0px; background-color: rgb(251, 251, 251); text-decoration-thickness: initial; text-decoration-style: initial; text-decoration-color: initial; float: none; display: inline !important;&quot;&gt;No&lt;/span&gt;" style="text;whiteSpace=wrap;html=1;" vertex="1" parent="WIyWlLk6GJQsqaUBKTNV-1">
          <mxGeometry x="898.45" y="210" width="50" height="40" as="geometry" />
        </mxCell>
        <mxCell id="C4AhbRnhhLf-bf0rgU8E-111" value="Visualize Results" style="rounded=1;whiteSpace=wrap;html=1;absoluteArcSize=1;arcSize=14;strokeWidth=2;" vertex="1" parent="WIyWlLk6GJQsqaUBKTNV-1">
          <mxGeometry x="1035" y="1320" width="110" height="30" as="geometry" />
        </mxCell>
        <mxCell id="C4AhbRnhhLf-bf0rgU8E-112" value="END" style="strokeWidth=2;html=1;shape=mxgraph.flowchart.terminator;whiteSpace=wrap;" vertex="1" parent="WIyWlLk6GJQsqaUBKTNV-1">
          <mxGeometry x="1040" y="1410" width="100" height="60" as="geometry" />
        </mxCell>
        <mxCell id="C4AhbRnhhLf-bf0rgU8E-113" style="edgeStyle=orthogonalEdgeStyle;rounded=0;orthogonalLoop=1;jettySize=auto;html=1;exitX=0.5;exitY=1;exitDx=0;exitDy=0;entryX=0.5;entryY=0;entryDx=0;entryDy=0;entryPerimeter=0;" edge="1" parent="WIyWlLk6GJQsqaUBKTNV-1" source="C4AhbRnhhLf-bf0rgU8E-111" target="C4AhbRnhhLf-bf0rgU8E-112">
          <mxGeometry relative="1" as="geometry" />
        </mxCell>
        <mxCell id="C4AhbRnhhLf-bf0rgU8E-115" value="&lt;span style=&quot;color: rgb(0, 0, 0); font-family: Helvetica; font-size: 11px; font-style: normal; font-variant-ligatures: normal; font-variant-caps: normal; font-weight: 400; letter-spacing: normal; orphans: 2; text-align: center; text-indent: 0px; text-transform: none; widows: 2; word-spacing: 0px; -webkit-text-stroke-width: 0px; background-color: rgb(251, 251, 251); text-decoration-thickness: initial; text-decoration-style: initial; text-decoration-color: initial; float: none; display: inline !important;&quot;&gt;No&lt;/span&gt;" style="text;whiteSpace=wrap;html=1;" vertex="1" parent="WIyWlLk6GJQsqaUBKTNV-1">
          <mxGeometry x="187.90999999999997" y="520" width="50" height="40" as="geometry" />
        </mxCell>
        <mxCell id="C4AhbRnhhLf-bf0rgU8E-116" value="&lt;span style=&quot;color: rgb(0, 0, 0); font-family: Helvetica; font-size: 11px; font-style: normal; font-variant-ligatures: normal; font-variant-caps: normal; font-weight: 400; letter-spacing: normal; orphans: 2; text-align: center; text-indent: 0px; text-transform: none; widows: 2; word-spacing: 0px; -webkit-text-stroke-width: 0px; background-color: rgb(251, 251, 251); text-decoration-thickness: initial; text-decoration-style: initial; text-decoration-color: initial; float: none; display: inline !important;&quot;&gt;No&lt;/span&gt;" style="text;whiteSpace=wrap;html=1;" vertex="1" parent="WIyWlLk6GJQsqaUBKTNV-1">
          <mxGeometry x="747.91" y="520" width="50" height="40" as="geometry" />
        </mxCell>
      </root>
    </mxGraphModel>
  </diagram>
</mxfile>
